<mxfile host="app.diagrams.net" modified="2020-10-19T11:28:29.356Z" agent="5.0 (Windows NT 10.0; Win64; x64) AppleWebKit/537.36 (KHTML, like Gecko) Chrome/86.0.4240.75 Safari/537.36" etag="yp6QWAr-oeLYqdXtX09B" version="13.8.0" type="github">
  <diagram id="6a731a19-8d31-9384-78a2-239565b7b9f0" name="Page-1">
    <mxGraphModel dx="2014" dy="941" grid="0" gridSize="10" guides="1" tooltips="1" connect="1" arrows="1" fold="1" page="1" pageScale="1" pageWidth="413" pageHeight="583" background="#ffffff" math="0" shadow="0">
      <root>
        <mxCell id="0" />
        <mxCell id="1" parent="0" />
        <mxCell id="5Pun43XqyjxGOMB9m64_-78" value="" style="group" vertex="1" connectable="0" parent="1">
          <mxGeometry x="21" y="21" width="370" height="536" as="geometry" />
        </mxCell>
        <mxCell id="5Pun43XqyjxGOMB9m64_-77" value="" style="group" vertex="1" connectable="0" parent="5Pun43XqyjxGOMB9m64_-78">
          <mxGeometry width="370" height="536" as="geometry" />
        </mxCell>
        <mxCell id="5Pun43XqyjxGOMB9m64_-76" value="" style="group" vertex="1" connectable="0" parent="5Pun43XqyjxGOMB9m64_-77">
          <mxGeometry width="370" height="536" as="geometry" />
        </mxCell>
        <mxCell id="5Pun43XqyjxGOMB9m64_-75" value="" style="group" vertex="1" connectable="0" parent="5Pun43XqyjxGOMB9m64_-76">
          <mxGeometry width="370" height="536" as="geometry" />
        </mxCell>
        <mxCell id="2" value="开始" style="shape=mxgraph.flowchart.terminator;strokeWidth=2;gradientColor=none;gradientDirection=north;fontStyle=0;html=1;" parent="5Pun43XqyjxGOMB9m64_-75" vertex="1">
          <mxGeometry x="67.7232142857143" width="99.10714285714288" height="20.099999999999998" as="geometry" />
        </mxCell>
        <mxCell id="4" value="获取并选定&lt;br&gt;设备文件目录" style="shape=mxgraph.flowchart.data;strokeWidth=2;gradientColor=none;gradientDirection=north;fontStyle=0;html=1;" parent="5Pun43XqyjxGOMB9m64_-75" vertex="1">
          <mxGeometry x="47.4888392857143" y="142.70999999999998" width="131.3169642857143" height="53.599999999999994" as="geometry" />
        </mxCell>
        <mxCell id="5Pun43XqyjxGOMB9m64_-68" style="edgeStyle=orthogonalEdgeStyle;rounded=0;orthogonalLoop=1;jettySize=auto;html=1;exitX=0;exitY=0.5;exitDx=0;exitDy=0;exitPerimeter=0;" edge="1" parent="5Pun43XqyjxGOMB9m64_-75" source="6">
          <mxGeometry relative="1" as="geometry">
            <mxPoint x="109.01785714285714" y="499.15000000000003" as="targetPoint" />
            <Array as="points">
              <mxPoint y="77.72" />
            </Array>
          </mxGeometry>
        </mxCell>
        <mxCell id="6" value="测试连接" style="shape=mxgraph.flowchart.decision;strokeWidth=2;gradientColor=none;gradientDirection=north;fontStyle=0;html=1;" parent="5Pun43XqyjxGOMB9m64_-75" vertex="1">
          <mxGeometry x="55.74776785714287" y="58.29" width="123.05803571428574" height="38.19" as="geometry" />
        </mxCell>
        <mxCell id="9" style="entryX=0.5;entryY=0;entryPerimeter=0;fontStyle=1;strokeColor=#003366;strokeWidth=1;html=1;exitX=0.5;exitY=1;exitDx=0;exitDy=0;exitPerimeter=0;" parent="5Pun43XqyjxGOMB9m64_-75" source="2" target="6" edge="1">
          <mxGeometry relative="1" as="geometry">
            <mxPoint x="117.27678571428574" y="36.849999999999994" as="sourcePoint" />
          </mxGeometry>
        </mxCell>
        <mxCell id="11" value="Y" style="text;fontStyle=0;html=1;strokeColor=none;gradientColor=none;fillColor=none;strokeWidth=2;" parent="5Pun43XqyjxGOMB9m64_-75" vertex="1">
          <mxGeometry x="94.56473214285714" y="286.09000000000003" width="12.38839285714286" height="17.42" as="geometry" />
        </mxCell>
        <mxCell id="12" value="" style="edgeStyle=elbowEdgeStyle;elbow=horizontal;fontColor=#001933;fontStyle=1;strokeColor=#003366;strokeWidth=1;html=1;" parent="5Pun43XqyjxGOMB9m64_-75" source="6" target="4" edge="1">
          <mxGeometry x="-147.0089285714286" y="-40.199999999999996" width="82.58928571428572" height="67" as="geometry">
            <mxPoint x="-147.0089285714286" y="26.799999999999997" as="sourcePoint" />
            <mxPoint x="-64.41964285714286" y="-40.199999999999996" as="targetPoint" />
          </mxGeometry>
        </mxCell>
        <mxCell id="14" value="no" style="text;fontStyle=0;html=1;strokeColor=none;gradientColor=none;fillColor=none;strokeWidth=2;align=center;" parent="5Pun43XqyjxGOMB9m64_-75" vertex="1">
          <mxGeometry x="117.27678571428574" y="259.28999999999996" width="33.03571428571429" height="17.42" as="geometry" />
        </mxCell>
        <mxCell id="24" value="是否为&lt;br&gt;提权模式" style="shape=mxgraph.flowchart.decision;strokeWidth=2;gradientColor=none;gradientDirection=north;fontStyle=0;html=1;" parent="5Pun43XqyjxGOMB9m64_-75" vertex="1">
          <mxGeometry x="45.42410714285715" y="231.15" width="128.83928571428572" height="52.595" as="geometry" />
        </mxCell>
        <mxCell id="5Pun43XqyjxGOMB9m64_-55" value="" style="edgeStyle=elbowEdgeStyle;elbow=horizontal;fontStyle=1;strokeColor=#003366;strokeWidth=1;html=1;" edge="1" parent="5Pun43XqyjxGOMB9m64_-75" source="4" target="24">
          <mxGeometry x="-147.0089285714286" y="-40.199999999999996" width="82.58928571428572" height="67" as="geometry">
            <mxPoint x="115.34020935960605" y="196.30999999999992" as="sourcePoint" />
            <mxPoint x="115.34020935960605" y="388.59999999999997" as="targetPoint" />
          </mxGeometry>
        </mxCell>
        <mxCell id="5Pun43XqyjxGOMB9m64_-70" style="edgeStyle=orthogonalEdgeStyle;rounded=0;orthogonalLoop=1;jettySize=auto;html=1;exitX=0.5;exitY=1;exitDx=0;exitDy=0;exitPerimeter=0;" edge="1" parent="5Pun43XqyjxGOMB9m64_-75" source="5Pun43XqyjxGOMB9m64_-56">
          <mxGeometry relative="1" as="geometry">
            <mxPoint x="109.01785714285714" y="313.56" as="targetPoint" />
            <Array as="points">
              <mxPoint x="303.92857142857144" y="313.56" />
            </Array>
          </mxGeometry>
        </mxCell>
        <mxCell id="5Pun43XqyjxGOMB9m64_-56" value="开启提权模式" style="shape=mxgraph.flowchart.data;strokeWidth=2;gradientColor=none;gradientDirection=north;fontStyle=0;html=1;" vertex="1" parent="5Pun43XqyjxGOMB9m64_-75">
          <mxGeometry x="238.68303571428575" y="230.6475" width="131.3169642857143" height="53.599999999999994" as="geometry" />
        </mxCell>
        <mxCell id="19" value="" style="edgeStyle=elbowEdgeStyle;elbow=horizontal;exitX=1;exitY=0.5;exitPerimeter=0;fontStyle=1;strokeColor=#003366;strokeWidth=1;html=1;exitDx=0;exitDy=0;entryX=0.095;entryY=0.5;entryDx=0;entryDy=0;entryPerimeter=0;" parent="5Pun43XqyjxGOMB9m64_-75" source="24" target="5Pun43XqyjxGOMB9m64_-56" edge="1">
          <mxGeometry x="-147.0089285714286" y="-40.199999999999996" width="82.58928571428572" height="67" as="geometry">
            <mxPoint x="170.4601562500002" y="415.40000000000003" as="sourcePoint" />
            <mxPoint x="-64.41964285714286" y="-40.199999999999996" as="targetPoint" />
            <Array as="points">
              <mxPoint x="208.12500000000003" y="257.28000000000003" />
              <mxPoint x="209.77678571428575" y="251.92" />
            </Array>
          </mxGeometry>
        </mxCell>
        <mxCell id="5Pun43XqyjxGOMB9m64_-59" value="" style="edgeStyle=elbowEdgeStyle;elbow=horizontal;fontStyle=1;strokeColor=#003366;strokeWidth=1;html=1;" edge="1" parent="5Pun43XqyjxGOMB9m64_-75">
          <mxGeometry x="-148.23125" y="47.235" width="82.58928571428572" height="67" as="geometry">
            <mxPoint x="109.5612376847291" y="283.74499999999995" as="sourcePoint" />
            <mxPoint x="109.84375000000001" y="327.63" as="targetPoint" />
          </mxGeometry>
        </mxCell>
        <mxCell id="5Pun43XqyjxGOMB9m64_-60" value="N" style="text;fontStyle=0;html=1;strokeColor=none;gradientColor=none;fillColor=none;strokeWidth=2;" vertex="1" parent="5Pun43XqyjxGOMB9m64_-75">
          <mxGeometry x="178.8058035714286" y="237.85" width="12.801339285714288" height="17.42" as="geometry" />
        </mxCell>
        <mxCell id="5Pun43XqyjxGOMB9m64_-62" value="续约" style="shape=mxgraph.flowchart.data;strokeWidth=2;gradientColor=none;gradientDirection=north;fontStyle=0;html=1;" vertex="1" parent="5Pun43XqyjxGOMB9m64_-75">
          <mxGeometry x="236.2053571428572" y="327.7975" width="131.3169642857143" height="53.599999999999994" as="geometry" />
        </mxCell>
        <mxCell id="5Pun43XqyjxGOMB9m64_-63" value="License是否过期" style="shape=mxgraph.flowchart.decision;strokeWidth=2;gradientColor=none;gradientDirection=north;fontStyle=0;html=1;" vertex="1" parent="5Pun43XqyjxGOMB9m64_-75">
          <mxGeometry x="45.42410714285715" y="328.29999999999995" width="128.83928571428572" height="52.595" as="geometry" />
        </mxCell>
        <mxCell id="5Pun43XqyjxGOMB9m64_-64" value="Y" style="text;html=1;align=center;verticalAlign=middle;resizable=0;points=[];autosize=1;" vertex="1" parent="5Pun43XqyjxGOMB9m64_-75">
          <mxGeometry x="98.28125000000001" y="100.49999999999999" width="18" height="18" as="geometry" />
        </mxCell>
        <mxCell id="5Pun43XqyjxGOMB9m64_-65" value="目录保护" style="shape=mxgraph.flowchart.data;strokeWidth=2;gradientColor=none;gradientDirection=north;fontStyle=0;html=1;" vertex="1" parent="5Pun43XqyjxGOMB9m64_-75">
          <mxGeometry x="44.18526785714286" y="423.43999999999994" width="131.3169642857143" height="53.599999999999994" as="geometry" />
        </mxCell>
        <mxCell id="5Pun43XqyjxGOMB9m64_-57" style="edgeStyle=orthogonalEdgeStyle;rounded=0;orthogonalLoop=1;jettySize=auto;html=1;exitX=0.5;exitY=1;exitDx=0;exitDy=0;exitPerimeter=0;entryX=0.5;entryY=0;entryDx=0;entryDy=0;entryPerimeter=0;" edge="1" parent="5Pun43XqyjxGOMB9m64_-75" source="5Pun43XqyjxGOMB9m64_-63" target="5Pun43XqyjxGOMB9m64_-65">
          <mxGeometry relative="1" as="geometry">
            <mxPoint x="249.1918103448276" y="415.26137931034475" as="targetPoint" />
          </mxGeometry>
        </mxCell>
        <mxCell id="5Pun43XqyjxGOMB9m64_-66" value="结束" style="shape=mxgraph.flowchart.terminator;strokeWidth=2;gradientColor=none;gradientDirection=north;fontStyle=0;html=1;" vertex="1" parent="5Pun43XqyjxGOMB9m64_-75">
          <mxGeometry x="60.29017857142857" y="515.9" width="99.10714285714288" height="20.099999999999998" as="geometry" />
        </mxCell>
        <mxCell id="5Pun43XqyjxGOMB9m64_-69" value="N" style="text;html=1;align=center;verticalAlign=middle;resizable=0;points=[];autosize=1;" vertex="1" parent="5Pun43XqyjxGOMB9m64_-75">
          <mxGeometry x="32.20982142857143" y="62.98" width="19" height="18" as="geometry" />
        </mxCell>
        <mxCell id="31" value="" style="edgeStyle=elbowEdgeStyle;elbow=horizontal;exitX=0.5;exitY=1;exitPerimeter=0;entryX=0.5;entryY=0;entryPerimeter=0;fontStyle=1;strokeColor=#003366;strokeWidth=1;html=1;exitDx=0;exitDy=0;entryDx=0;entryDy=0;" parent="5Pun43XqyjxGOMB9m64_-75" source="5Pun43XqyjxGOMB9m64_-65" target="5Pun43XqyjxGOMB9m64_-66" edge="1">
          <mxGeometry x="-147.0089285714286" y="-40.199999999999996" width="82.58928571428572" height="67" as="geometry">
            <mxPoint x="-147.0089285714286" y="26.799999999999997" as="sourcePoint" />
            <mxPoint x="-64.41964285714286" y="-40.199999999999996" as="targetPoint" />
          </mxGeometry>
        </mxCell>
        <mxCell id="5Pun43XqyjxGOMB9m64_-71" value="" style="edgeStyle=elbowEdgeStyle;elbow=horizontal;exitX=1;exitY=0.5;exitPerimeter=0;fontStyle=1;strokeColor=#003366;strokeWidth=1;html=1;exitDx=0;exitDy=0;entryX=0.095;entryY=0.5;entryDx=0;entryDy=0;entryPerimeter=0;" edge="1" parent="5Pun43XqyjxGOMB9m64_-75" source="5Pun43XqyjxGOMB9m64_-63" target="5Pun43XqyjxGOMB9m64_-62">
          <mxGeometry x="-138.75" y="-33.5" width="82.58928571428572" height="67" as="geometry">
            <mxPoint x="182.52232142857144" y="264.1474999999999" as="sourcePoint" />
            <mxPoint x="229.59821428571428" y="354.42999999999995" as="targetPoint" />
            <Array as="points">
              <mxPoint x="229.59821428571428" y="355.09999999999997" />
              <mxPoint x="214.7321428571429" y="347.72999999999996" />
              <mxPoint x="218.03571428571428" y="258.62" />
            </Array>
          </mxGeometry>
        </mxCell>
        <mxCell id="5Pun43XqyjxGOMB9m64_-72" style="edgeStyle=orthogonalEdgeStyle;rounded=0;orthogonalLoop=1;jettySize=auto;html=1;exitX=0.5;exitY=1;exitDx=0;exitDy=0;exitPerimeter=0;" edge="1" parent="5Pun43XqyjxGOMB9m64_-75">
          <mxGeometry relative="1" as="geometry">
            <mxPoint x="304.3415178571429" y="380.8949999999999" as="sourcePoint" />
            <mxPoint x="109.01785714285714" y="410.2074999999999" as="targetPoint" />
            <Array as="points">
              <mxPoint x="303.92857142857144" y="410.2075" />
            </Array>
          </mxGeometry>
        </mxCell>
        <mxCell id="5Pun43XqyjxGOMB9m64_-73" value="Y" style="text;html=1;align=center;verticalAlign=middle;resizable=0;points=[];autosize=1;" vertex="1" parent="5Pun43XqyjxGOMB9m64_-75">
          <mxGeometry x="177.56696428571428" y="338.34999999999997" width="18" height="18" as="geometry" />
        </mxCell>
        <mxCell id="5Pun43XqyjxGOMB9m64_-74" value="N" style="text;html=1;align=center;verticalAlign=middle;resizable=0;points=[];autosize=1;" vertex="1" parent="5Pun43XqyjxGOMB9m64_-75">
          <mxGeometry x="91.26116071428572" y="385.25" width="19" height="18" as="geometry" />
        </mxCell>
      </root>
    </mxGraphModel>
  </diagram>
</mxfile>
